# This file uses centimeters as units for non-parametric coordinates.

mtllib LataRefresco.mtl
g default
v 12.765283 5.695944 -1.536369
v 11.458367 5.695944 -2.485898
v 9.842933 5.695944 -2.485897
v 8.536020 5.695944 -1.536369
v 8.036824 5.695944 0.000000
v 8.536021 5.695944 1.536369
v 9.842936 5.695944 2.485897
v 11.458367 5.695944 2.485897
v 12.765281 5.695944 1.536369
v 13.264478 5.695944 -0.000000
v 12.729082 14.826785 -1.510068
v 11.444542 14.826785 -2.443341
v 9.856761 14.826785 -2.443341
v 8.572221 14.826785 -1.510067
v 8.081571 14.826785 0.000000
v 8.572222 14.826785 1.510068
v 9.856761 14.826785 2.443341
v 11.444542 14.826785 2.443340
v 12.729082 14.826785 1.510067
v 13.219732 14.826785 -0.000000
v 13.044746 14.190657 -1.739412
v 13.609915 14.190657 0.000000
v 13.044746 14.190657 1.739411
v 11.565115 14.190657 2.814427
v 9.736188 14.190657 2.814427
v 8.256557 14.190657 1.739412
v 7.691388 14.190657 0.000000
v 8.256557 14.190657 -1.739411
v 9.736188 14.190657 -2.814427
v 11.565115 14.190657 -2.814427
v 13.044746 6.039028 -1.739412
v 13.609915 6.039028 0.000000
v 13.044746 6.039028 1.739411
v 11.565115 6.039028 2.814427
v 9.736188 6.039028 2.814427
v 8.256557 6.039028 1.739412
v 7.691388 6.039028 0.000000
v 8.256557 6.039028 -1.739411
v 9.736188 6.039028 -2.814427
v 11.565115 6.039028 -2.814427
v 12.656116 14.544100 -1.457054
v 11.416671 14.544100 -2.357564
v 9.884632 14.544100 -2.357563
v 8.645188 14.544100 -1.457054
v 8.171762 14.544100 0.000000
v 8.645188 14.544100 1.457054
v 9.884632 14.544100 2.357563
v 11.416671 14.544100 2.357563
v 12.656116 14.544100 1.457054
v 13.129541 14.544100 -0.000000
v 12.659982 5.804446 -1.459864
v 11.418146 5.804446 -2.362109
v 9.883154 5.804446 -2.362108
v 8.641321 5.804446 -1.459863
v 8.166983 5.804446 0.000000
v 8.641322 5.804446 1.459864
v 9.883157 5.804446 2.362108
v 11.418146 5.804446 2.362108
v 12.659979 5.804446 1.459863
v 13.134319 5.804446 -0.000000
v 9.884632 14.544100 0.000000
v 11.416670 14.544100 -0.000000
v 12.897149 5.804446 0.729932
v 8.404152 5.804446 -0.729932
v 11.418144 5.804445 0.000000
v 9.883157 5.804445 0.000000
vt 0.616184 0.028200
vt 0.714840 0.027822
vt 0.710764 0.469429
vt 0.612145 0.467301
vt 0.616412 0.003451
vt 0.705219 0.001654
vt 0.813775 0.028761
vt 0.809701 0.470310
vt 0.699276 0.509868
vt 0.611789 0.506023
vt 0.517552 0.026007
vt 0.513504 0.467615
vt 0.527653 0.000020
vt 0.524246 0.508258
vt 0.418616 0.025126
vt 0.414567 0.466675
vt 0.214784 0.030862
vt 0.313406 0.033467
vt 0.295978 0.474749
vt 0.197469 0.469640
vt 0.215760 0.006131
vt 0.304581 0.007020
vt 0.412268 0.037398
vt 0.394843 0.478621
vt 0.283273 0.514823
vt 0.195942 0.508334
vt 0.116263 0.025688
vt 0.098863 0.466971
vt 0.127145 0.000018
vt 0.108371 0.507921
vt 0.017399 0.021816
vt 0.000000 0.463040
vt 0.955029 0.083394
vt 0.962756 0.168136
vt 0.946728 0.168686
vt 0.939186 0.085917
vt 0.960851 0.253209
vt 0.944872 0.251776
vt 0.935964 0.000000
vt 0.920725 0.005032
vt 0.947542 0.337713
vt 0.931994 0.333736
vt 0.991388 0.343633
vt 0.996742 0.428558
vt 0.980704 0.428659
vt 0.975481 0.345712
vt 0.992459 0.513544
vt 0.976526 0.511665
vt 0.974664 0.259738
vt 0.959289 0.264342
vt 0.976793 0.597643
vt 0.961361 0.593233
vt 0.260030 0.586222
vt 0.188910 0.533629
vt 0.197229 0.508765
vt 0.279930 0.568987
vt 0.252613 0.591553
vt 0.186014 0.542285
vt 0.100433 0.532823
vt 0.092574 0.507809
vt 0.286840 0.670928
vt 0.277688 0.670844
vt 0.184858 0.670051
vt 0.103167 0.541533
vt 0.028420 0.584036
vt 0.008840 0.566437
vt 0.258420 0.755286
vt 0.251195 0.749694
vt 0.264250 0.710526
vt 0.183673 0.797789
vt 0.101982 0.669271
vt 0.035646 0.589627
vt 0.186407 0.806498
vt 0.100826 0.797036
vt 0.009153 0.668477
vt 0.022590 0.628795
vt 0.000000 0.668394
vt 0.278000 0.772884
vt 0.194266 0.831512
vt 0.097931 0.805692
vt 0.034228 0.747769
vt 0.026811 0.753100
vt 0.089611 0.830556
vt 0.006911 0.770335
vt 0.770718 0.755824
vt 0.643258 0.755824
vt 0.643258 0.663220
vt 0.722033 0.688815
vt 0.770718 0.838653
vt 0.643258 0.838653
vt 0.515799 0.755824
vt 0.564484 0.688815
vt 0.643258 0.931258
vt 0.722033 0.905662
vt 0.515799 0.838653
vt 0.564484 0.905662
vt 0.828827 0.193821
vt 0.927570 0.199313
vt 0.902870 0.639451
vt 0.804561 0.633983
vt 0.896031 0.679208
vt 0.806948 0.674253
vt 0.996522 0.665295
vt 0.979536 0.701963
vt 0.708620 0.649281
vt 0.721435 0.687606
vt 0.500313 1.000000
vt 0.401570 0.994508
vt 0.426270 0.554369
vt 0.524578 0.559838
vt 0.433109 0.514612
vt 0.522191 0.519567
vt 0.332618 0.528525
vt 0.349604 0.491858
vt 0.620519 0.544540
vt 0.607705 0.506214
vt 0.852783 0.000019
vt 0.849865 0.085811
vt 0.833955 0.083762
vt 0.836770 0.000982
vt 0.814672 0.085806
vt 0.817590 0.000013
vt 0.833501 0.002062
vt 0.830686 0.084843
vn 0.424534 -0.691621 -0.584321
vn 0.424534 -0.691621 -0.584321
vn 0.587510 -0.030611 -0.808638
vn 0.587510 -0.030611 -0.808638
vn -0.000000 -0.691621 -0.722261
vn -0.000000 -0.691621 -0.722260
vn -0.000000 -0.030611 -0.999531
vn -0.000000 -0.030611 -0.999531
vn -0.424535 -0.691620 -0.584322
vn -0.424535 -0.691620 -0.584322
vn -0.587510 -0.030611 -0.808638
vn -0.587510 -0.030610 -0.808638
vn -0.686912 -0.691620 -0.223191
vn -0.686912 -0.691620 -0.223191
vn -0.950611 -0.030611 -0.308872
vn -0.950611 -0.030610 -0.308872
vn -0.686911 -0.691621 0.223191
vn -0.686911 -0.691621 0.223191
vn -0.950611 -0.030611 0.308872
vn -0.950611 -0.030611 0.308872
vn -0.424534 -0.691621 0.584321
vn -0.424534 -0.691621 0.584321
vn -0.587510 -0.030611 0.808638
vn -0.587510 -0.030611 0.808638
vn 0.000000 -0.691621 0.722261
vn 0.000000 -0.691621 0.722261
vn 0.000000 -0.030610 0.999531
vn 0.000000 -0.030610 0.999531
vn 0.424534 -0.691622 0.584320
vn 0.424534 -0.691622 0.584320
vn 0.587510 -0.030611 0.808638
vn 0.587510 -0.030611 0.808638
vn 0.686910 -0.691622 0.223190
vn 0.686910 -0.691622 0.223190
vn 0.950611 -0.030611 0.308872
vn 0.950611 -0.030611 0.308872
vn 0.686911 -0.691621 -0.223191
vn 0.686911 -0.691621 -0.223191
vn 0.950611 -0.030611 -0.308872
vn 0.950611 -0.030611 -0.308872
vn 0.000000 -1.000000 0.000000
vn 0.000000 -1.000000 0.000000
vn 0.000000 -1.000000 -0.000000
vn 0.000000 -1.000000 -0.000000
vn 0.950488 0.034585 -0.308832
vn 0.950488 0.034585 -0.308832
vn 0.821497 0.503882 -0.266920
vn 0.821497 0.503882 -0.266920
vn 0.950488 0.034585 0.308832
vn 0.950488 0.034585 0.308832
vn 0.821497 0.503882 0.266920
vn 0.821497 0.503882 0.266920
vn 0.587434 0.034585 0.808533
vn 0.587434 0.034585 0.808533
vn 0.507713 0.503882 0.698806
vn 0.507713 0.503882 0.698806
vn 0.000000 0.034585 0.999402
vn 0.000000 0.034585 0.999402
vn 0.000000 0.503882 0.863772
vn 0.000000 0.503882 0.863772
vn -0.587434 0.034585 0.808533
vn -0.587434 0.034585 0.808533
vn -0.507713 0.503883 0.698806
vn -0.507713 0.503883 0.698806
vn -0.950488 0.034585 0.308832
vn -0.950488 0.034585 0.308832
vn -0.821496 0.503883 0.266920
vn -0.821496 0.503883 0.266920
vn -0.950488 0.034585 -0.308832
vn -0.950488 0.034585 -0.308832
vn -0.821497 0.503882 -0.266920
vn -0.821497 0.503882 -0.266920
vn -0.587434 0.034585 -0.808533
vn -0.587434 0.034585 -0.808533
vn -0.507713 0.503882 -0.698806
vn -0.507713 0.503882 -0.698806
vn -0.000000 0.034585 -0.999402
vn -0.000000 0.034585 -0.999402
vn -0.000000 0.503882 -0.863772
vn -0.000000 0.503882 -0.863772
vn 0.587434 0.034585 -0.808533
vn 0.587434 0.034585 -0.808533
vn 0.507713 0.503882 -0.698806
vn 0.507713 0.503882 -0.698807
vn -0.562461 0.290364 0.774161
vn -0.562461 0.290364 0.774162
vn -0.562461 0.290364 0.774162
vn -0.562461 0.290364 0.774162
vn 0.000000 0.290365 0.956916
vn 0.000000 0.290365 0.956916
vn 0.000000 0.290365 0.956916
vn 0.000000 0.290365 0.956916
vn 0.562461 0.290365 0.774161
vn 0.562461 0.290365 0.774161
vn 0.562461 0.290365 0.774161
vn 0.562461 0.290365 0.774161
vn 0.910081 0.290365 0.295704
vn 0.910081 0.290365 0.295704
vn 0.910081 0.290365 0.295704
vn 0.910081 0.290365 0.295704
vn 0.910082 0.290362 -0.295704
vn 0.910082 0.290362 -0.295704
vn 0.910082 0.290362 -0.295704
vn 0.910082 0.290362 -0.295704
vn 0.562462 0.290364 -0.774161
vn 0.562462 0.290364 -0.774161
vn 0.562462 0.290364 -0.774161
vn 0.562462 0.290364 -0.774161
vn -0.000000 0.290365 -0.956916
vn -0.000000 0.290365 -0.956916
vn -0.000000 0.290365 -0.956916
vn -0.000000 0.290365 -0.956916
vn -0.562461 0.290363 -0.774162
vn -0.562461 0.290363 -0.774162
vn -0.562461 0.290363 -0.774162
vn -0.562461 0.290363 -0.774162
vn -0.910082 0.290363 -0.295703
vn -0.910082 0.290363 -0.295704
vn -0.910082 0.290363 -0.295704
vn -0.910082 0.290363 -0.295703
vn -0.910082 0.290362 0.295703
vn -0.910082 0.290362 0.295703
vn -0.910082 0.290362 0.295703
vn -0.910082 0.290362 0.295703
vn -0.387436 -0.752014 0.533261
vn -0.387436 -0.752014 0.533261
vn -0.387436 -0.752014 0.533261
vn -0.387436 -0.752014 0.533261
vn 0.000000 -0.752016 0.659145
vn 0.000000 -0.752016 0.659145
vn 0.000000 -0.752016 0.659144
vn 0.000000 -0.752016 0.659145
vn 0.387437 -0.752015 0.533261
vn 0.387437 -0.752015 0.533261
vn 0.387436 -0.752014 0.533261
vn 0.387437 -0.752014 0.533261
vn 0.626885 -0.752015 0.203687
vn 0.626886 -0.752015 0.203687
vn 0.626885 -0.752015 0.203687
vn 0.626885 -0.752015 0.203687
vn 0.626885 -0.752015 0.203687
vn 0.626886 -0.752014 -0.203688
vn 0.626886 -0.752014 -0.203688
vn 0.626886 -0.752014 -0.203688
vn 0.626886 -0.752014 -0.203688
vn 0.387436 -0.752014 -0.533261
vn 0.387436 -0.752014 -0.533261
vn 0.387436 -0.752014 -0.533262
vn 0.387436 -0.752014 -0.533262
vn -0.000000 -0.752014 -0.659148
vn -0.000000 -0.752014 -0.659148
vn -0.000000 -0.752014 -0.659148
vn -0.000000 -0.752014 -0.659148
vn -0.387436 -0.752014 -0.533262
vn -0.387436 -0.752014 -0.533262
vn -0.387436 -0.752014 -0.533262
vn -0.387436 -0.752014 -0.533262
vn -0.626886 -0.752014 -0.203687
vn -0.626886 -0.752014 -0.203687
vn -0.626886 -0.752014 -0.203687
vn -0.626886 -0.752014 -0.203687
vn -0.626886 -0.752014 -0.203687
vn -0.626886 -0.752015 0.203687
vn -0.626886 -0.752015 0.203687
vn -0.626886 -0.752015 0.203687
vn -0.626886 -0.752015 0.203687
vn 0.000000 1.000000 -0.000000
vn 0.000000 1.000000 -0.000000
vn 0.000000 1.000000 0.000000
vn 0.000000 1.000000 0.000000
vn 0.000000 1.000000 -0.000000
vn 0.000000 1.000000 -0.000000
vn 0.000000 1.000000 -0.000000
vn 0.000000 1.000000 0.000000
vn 0.000000 1.000000 -0.000000
vn 0.000000 1.000000 -0.000000
vn 0.000000 1.000000 -0.000000
vn 0.000000 1.000000 -0.000000
vn 0.000000 -1.000000 0.000000
vn 0.000000 -1.000000 0.000000
vn 0.000000 -1.000000 0.000000
vn -0.000000 -1.000000 0.000000
vn -0.000000 -1.000000 0.000000
vn -0.000000 -1.000000 0.000000
vn -0.000000 -1.000000 0.000000
vn -0.000000 -1.000000 0.000000
vn -0.000000 -1.000000 0.000000
vn -0.000000 -1.000000 0.000000
s 1
g pCylinder1
usemtl blinn3SG
f 1/53/1 2/54/2 40/55/3 31/56/4
s 2
f 2/54/5 3/59/6 39/60/7 40/55/8
s 3
f 3/59/9 4/65/10 38/66/11 39/60/12
s 4
f 4/29/13 5/21/14 37/17/15 38/27/16
s 5
f 5/21/17 6/22/18 36/18/19 37/17/20
s 6
f 6/82/21 7/80/22 35/83/23 36/84/24
s 7
f 7/80/25 8/73/26 34/79/27 35/83/28
s 8
f 8/73/29 9/67/30 33/78/31 34/79/32
s 9
f 9/13/33 10/5/34 32/1/35 33/11/36
s 10
f 10/5/37 1/6/38 31/2/39 32/1/40
s 11
f 60/62/41 65/63/42 52/58/43 51/57/44
s 10
f 22/4/45 21/3/46 11/9/47 20/10/48
s 9
f 23/12/49 22/4/50 20/10/51 19/14/52
s 8
f 24/99/53 23/103/54 19/104/55 18/101/56
s 7
f 25/100/57 24/99/58 18/101/59 17/102/60
s 6
f 26/105/61 25/100/62 17/102/63 16/106/64
s 5
f 27/20/65 26/19/66 16/25/67 15/26/68
s 4
f 28/28/69 27/20/70 15/26/71 14/30/72
s 3
f 29/109/73 28/113/74 14/114/75 13/111/76
s 2
f 30/110/77 29/109/78 13/111/79 12/112/80
s 1
f 21/115/81 30/110/82 12/112/83 11/116/84
s 10
f 32/1/40 31/2/39 21/3/46 22/4/45
s 9
f 33/11/36 32/1/35 22/4/50 23/12/49
s 8
f 34/15/32 33/11/31 23/12/54 24/16/53
s 7
f 35/97/28 34/98/27 24/99/58 25/100/57
s 6
f 36/18/24 35/23/23 25/24/62 26/19/61
s 5
f 37/17/20 36/18/19 26/19/66 27/20/65
s 4
f 38/27/16 37/17/15 27/20/70 28/28/69
s 3
f 39/31/12 38/27/11 28/28/74 29/32/73
s 2
f 40/107/8 39/108/7 29/109/78 30/110/77
s 1
f 31/2/4 40/7/3 30/8/82 21/3/81
s off
f 11/47/85 12/51/86 42/52/87 41/48/88
f 12/117/89 13/118/90 43/119/91 42/120/92
f 13/39/93 14/33/94 44/36/95 43/40/96
f 14/33/97 15/34/98 45/35/99 44/36/100
f 15/34/101 16/37/102 46/38/103 45/35/104
f 16/37/105 17/41/106 47/42/107 46/38/108
f 17/121/109 18/122/110 48/123/111 47/124/112
f 18/49/113 19/43/114 49/46/115 48/50/116
f 19/43/117 20/44/118 50/45/119 49/46/120
f 20/44/121 11/47/122 41/48/123 50/45/124
f 2/54/125 1/53/126 51/57/127 52/58/128
f 3/59/129 2/54/130 52/58/131 53/64/132
f 4/65/133 3/59/134 53/64/135 54/72/136
f 5/77/137 4/65/138 54/72/139 64/76/140 55/75/141
f 6/82/142 5/77/143 55/75/144 56/81/145
f 7/80/146 6/82/147 56/81/148 57/74/149
f 8/73/150 7/80/151 57/74/152 58/70/153
f 9/67/154 8/73/155 58/70/156 59/68/157
f 10/61/158 9/67/159 59/68/160 63/69/161 60/62/162
f 1/53/163 10/61/164 60/62/165 51/57/166
s 12
f 42/85/167 62/86/168 50/87/169 41/88/170
f 45/93/171 61/90/172 43/89/173 44/94/174
f 47/95/175 61/90/172 45/93/171 46/96/176
f 50/87/169 62/86/168 48/91/177 49/92/178
f 42/85/167 43/89/173 61/90/172 62/86/168
f 48/91/177 62/86/168 61/90/172 47/95/175
s 11
f 58/70/179 65/63/42 60/62/41 63/69/180 59/68/181
f 58/70/179 57/74/182 66/71/183 65/63/42
f 52/58/43 65/63/42 66/71/183 53/64/184
f 66/71/183 57/74/182 56/81/185 55/75/186
f 53/64/184 66/71/183 55/75/186 64/76/187 54/72/188
