# This file uses centimeters as units for non-parametric coordinates.

mtllib Calle_Completa.mtl
g default
v -12.988014 0.000000 24.709190
v 9.891243 0.000000 24.709190
v -12.988014 0.000000 -24.796598
v 9.891243 0.000000 -24.796598
v -11.536667 0.060789 -25.052671
v -11.536667 0.810789 -25.052671
v -11.847336 1.060789 -25.052671
v -21.847336 1.060789 -25.052671
v -11.847336 1.060789 24.852768
v -21.847336 1.060789 24.852768
v -11.536667 0.810789 24.852768
v -11.536667 0.060789 24.852768
v 9.805084 0.040124 24.971886
v 9.805084 0.790124 24.971886
v 10.115753 1.040124 24.971886
v 20.115753 1.040124 24.971886
v 10.115753 1.040124 -24.933558
v 20.115753 1.040124 -24.933558
v 9.805084 0.790124 -24.933558
v 9.805084 0.040124 -24.933558
vt 0.208219 0.001992
vt 0.223188 0.001992
vt 0.223188 0.998008
vt 0.208219 0.998008
vt 0.228177 0.001992
vt 0.228177 0.998008
vt 0.440187 0.001992
vt 0.455155 0.001992
vt 0.455155 0.998008
vt 0.440187 0.998008
vt 0.460145 0.001992
vt 0.460145 0.998008
vt 0.922586 0.001992
vt 0.922586 0.990032
vt 0.465961 0.990032
vt 0.465961 0.001992
vt 0.001841 0.001992
vt 0.201422 0.001992
vt 0.201422 0.998008
vt 0.001841 0.998008
vt 0.433574 0.998008
vt 0.233993 0.998008
vt 0.233993 0.001992
vt 0.433574 0.001992
vn 0.000000 1.000000 0.000000
vn 0.000000 1.000000 0.000000
vn 0.000000 1.000000 0.000000
vn 0.000000 1.000000 0.000000
vn 0.000000 1.000000 0.000000
vn 0.000000 1.000000 0.000000
vn 0.000000 1.000000 0.000000
vn 0.000000 1.000000 0.000000
vn 1.000000 0.000000 0.000000
vn 0.954976 0.296682 0.000000
vn 0.954976 0.296682 0.000000
vn 1.000000 0.000000 0.000000
vn 0.626932 0.779074 0.000000
vn 0.626932 0.779074 0.000000
vn 0.000000 1.000000 0.000000
vn 0.000000 1.000000 0.000000
vn 0.000000 1.000000 0.000000
vn 0.000000 1.000000 0.000000
vn -1.000000 0.000000 0.000000
vn -0.954977 0.296681 0.000000
vn -0.954977 0.296681 0.000000
vn -1.000000 0.000000 0.000000
vn -0.626933 0.779073 0.000000
vn -0.626933 0.779073 0.000000
s off
g pPlane2
usemtl lambert7SG
f 2/13/1 4/14/2 3/15/3 1/16/4
f 10/17/5 9/18/6 7/19/7 8/20/8
s 1
f 5/1/9 6/2/10 11/3/11 12/4/12
f 7/5/13 9/6/14 11/3/11 6/2/10
s off
f 18/21/15 17/22/16 15/23/17 16/24/18
s 2
f 13/7/19 14/8/20 19/9/21 20/10/22
f 15/11/23 17/12/24 19/9/21 14/8/20
